<?xml version="1.0" standalone="no"?>
<!DOCTYPE svg PUBLIC "-//W3C//DTD SVG 20010904//EN"
 "http://www.w3.org/TR/2001/REC-SVG-20010904/DTD/svg10.dtd">
<svg version="1.0" xmlns="http://www.w3.org/2000/svg"
 width="500.000000pt" height="500.000000pt" viewBox="0 0 500.000000 500.000000"
 preserveAspectRatio="xMidYMid meet">

<g transform="translate(0.000000,500.000000) scale(0.100000,-0.100000)"
fill="#000000" stroke="none">
<path d="M1310 2651 c0 -5 4 -11 9 -13 5 -1 38 -75 74 -163 48 -119 69 -161
83 -163 16 -2 28 22 74 148 53 146 81 197 101 185 5 -4 9 -75 9 -160 0 -136
-2 -155 -17 -164 -13 -7 21 -10 120 -11 l137 0 0 55 c0 30 -4 55 -10 55 -5 0
-10 -7 -10 -15 0 -50 -50 -90 -106 -83 -29 3 -29 3 -32 81 -3 71 -1 77 17 77
20 0 29 -7 56 -45 13 -18 14 -14 15 48 0 38 -4 67 -10 67 -5 0 -10 -6 -10 -13
0 -19 -33 -47 -53 -47 -14 0 -17 12 -17 74 0 66 2 75 20 81 49 16 110 -22 110
-67 0 -9 5 -20 10 -23 6 -4 10 15 10 49 l0 56 -172 0 -172 0 23 -21 c15 -14
20 -27 16 -42 -16 -59 -68 -197 -74 -197 -4 0 -26 52 -51 116 -42 112 -43 117
-25 130 17 12 10 14 -53 14 -40 0 -72 -4 -72 -9z"/>
<path d="M1930 2640 c18 -18 20 -33 20 -159 0 -133 -1 -141 -22 -155 -21 -15
-12 -16 115 -16 l137 0 -1 63 0 62 -19 -41 c-10 -23 -29 -49 -41 -58 -30 -21
-85 -21 -93 0 -3 9 -6 76 -6 150 0 121 2 136 20 154 l20 20 -75 0 -75 0 20
-20z"/>
<path d="M2270 2638 c-62 -42 -75 -71 -75 -158 0 -64 4 -84 21 -107 34 -45 82
-68 145 -68 102 0 169 73 169 184 0 94 -48 157 -127 167 -34 4 -36 3 -16 -7
84 -44 83 -292 -2 -331 -63 -28 -115 47 -115 167 0 81 26 150 62 165 23 9 23
9 -3 9 -14 1 -41 -9 -59 -21z"/>
<path d="M2552 2648 c13 -10 17 -39 20 -138 5 -162 21 -192 104 -205 49 -8
107 13 126 47 8 14 15 72 18 152 4 104 8 131 21 139 9 6 24 7 33 4 14 -6 16
-27 16 -162 0 -152 -1 -156 -22 -165 -17 -6 1 -9 62 -9 61 0 79 3 63 9 -21 8
-23 16 -23 80 l0 70 29 0 c32 0 42 -19 56 -103 10 -60 27 -65 200 -57 83 4
142 7 133 8 -28 3 -37 32 -24 77 12 40 12 40 68 43 l55 3 17 -41 c21 -52 20
-77 -1 -83 -10 -3 18 -5 61 -6 76 -1 79 0 62 17 -12 14 -136 313 -136 329 0 2
-8 3 -18 3 -13 0 -31 -36 -76 -152 -93 -243 -116 -249 -116 -28 0 142 1 150
22 164 21 15 18 16 -57 16 -59 -1 -75 -3 -62 -11 15 -9 17 -28 17 -164 0 -85
-3 -156 -7 -158 -23 -13 -49 13 -63 64 -12 43 -22 57 -47 70 l-30 15 36 20
c60 32 68 106 14 141 -23 15 -54 18 -188 21 -127 2 -156 0 -140 -9 11 -7 23
-17 27 -23 14 -20 9 -215 -6 -251 -24 -56 -86 -74 -122 -34 -16 18 -19 40 -22
154 -3 129 -3 133 19 149 22 15 20 16 -56 16 -65 0 -76 -2 -63 -12z m488 -18
c24 -24 27 -86 4 -118 -10 -14 -25 -22 -45 -22 l-29 0 0 73 c0 41 3 77 7 80
13 13 43 7 63 -13z m436 -156 c6 -23 4 -24 -40 -24 -25 0 -46 3 -46 6 0 4 10
34 22 67 l22 60 18 -43 c10 -23 21 -53 24 -66z"/>
</g>
</svg>
